<svg id="Layer_1" data-name="Layer 1" xmlns="http://www.w3.org/2000/svg" viewBox="0 0 1302 312"><defs><style>.cls-1{fill:#4b49bb;}</style></defs><path class="cls-1" d="M421.47,221.29V101.13l15.22-7.21h.81v56.39h47.26V101.13L500,93.92h.8V214.08l-15.22,7.21h-.8v-56.4H437.5v49.19l-15.22,7.21Z"/><path class="cls-1" d="M534,112.26a10,10,0,0,1,0-13.86,9.49,9.49,0,0,1,13.62,0,10,10,0,0,1,0,13.86,9.47,9.47,0,0,1-13.62,0Zm-1.2,109V134L548,126.76h.8v87.32l-15.22,7.21Z"/><path class="cls-1" d="M579.84,221.29V154q0-24,24-24h20v.81l-6.41,13.61H603.88q-8,0-8,9.62v60.08l-15.23,7.21Z"/><path class="cls-1" d="M669.85,218.08q-24,0-24-24V154q0-24,24-24h18.42q24,0,24,24v4.24l-50.23,38.84q1.13,6.58,7.77,6.58h18.42q8,0,8-9.61v-4.24l15.22-7.21h.8v11.45q0,24-24,24Zm-8-37.73,34.37-26.57q-.5-9.39-7.94-9.4H669.85q-8,0-8,9.62Z"/><path class="cls-1" d="M802.05,218.08q-28,0-28-28V125.16q0-28,28-28h24.83q28,0,28,28V134l-15.22,7.21h-.8v-16q0-13.62-12-13.62H802.05q-12,0-12,13.62v64.89q0,13.6,12,13.61h24.83q12,0,12-13.61v-8.82L854.12,174h.8v16q0,28-28,28Z"/><path class="cls-1" d="M887.05,221.29V154q0-24,24-24h20v.81l-6.41,13.61H911.08q-8,0-8,9.62v60.08l-15.22,7.21Z"/><path class="cls-1" d="M979.86,218.08q-24,0-24-24V134l15.22-7.21h.8v67.29q0,9.62,8,9.61h18.43q8,0,8-9.61V134l15.22-7.21h.8v67.29q0,24-24,24Z"/><path class="cls-1" d="M1055.58,110.92a10,10,0,0,1,0-13.86,9.49,9.49,0,0,1,13.62,0,10,10,0,0,1,0,13.86,9.49,9.49,0,0,1-13.62,0Zm-1.2,109V132.63l15.22-7.21h.8v87.32l-15.22,7.2Z"/><path class="cls-1" d="M1125.69,218.08q-24,0-24-24v-2.88l15.22-7.21h.8v10.09q0,9.62,8,9.61h18.43q8,0,8-9.61v-6.33q0-9.61-8-9.61h-15.06q-24,0-24-24.11t24-24h9.37q24,0,24,19.39l-15.22,7.21h-.8V154q0-9.62-8-9.62h-9.37q-8,0-8,9.62t8,9.69h15.06q24,0,24,24v6.33q0,24-24,24Z"/><path class="cls-1" d="M1223.18,218.08q-24,0-24-24V154q0-24,24-24h18.43q24,0,24,24v4.24l-50.23,38.84q1.13,6.58,7.77,6.58h18.43q8,0,8-9.61v-4.24l15.22-7.21h.8v11.45q0,24-24,24Zm-8-37.73,34.37-26.57q-.48-9.39-7.93-9.4h-18.43q-8,0-8,9.62Z"/><path class="cls-1" d="M328,119.28l31.42-14.88V52.22H238.54V34l-40.67-2.19L157.22,34v18.2H36.36v67.06h1.1l31.41-14.87V84.72H198l-16.46,9.87V247.66H68.87V213.11H67.78L36.36,228v52.18h323V213.11h-1.08L326.89,228v19.67H197.53l16.54-9.93v-153H326.89v34.56ZM221.88,54.06l-24,24-24-24V47.27l24,0,24,0Z"/></svg>