<svg width="12" height="22" viewBox="0 0 12 22" fill="none" xmlns="http://www.w3.org/2000/svg">
<path id="Icon metro-dollar2" d="M11.279 14.2701C11.2996 15.3716 10.8965 16.439 10.153 17.2521C9.38872 18.0933 8.3537 18.64 7.22801 18.7971V20.7771C7.22984 20.8251 7.22172 20.873 7.20418 20.9177C7.18663 20.9625 7.16003 21.0031 7.12604 21.0371C7.09206 21.0711 7.05142 21.0977 7.00668 21.1152C6.96193 21.1328 6.91404 21.1409 6.86601 21.1391H5.33801C5.24241 21.1378 5.15108 21.0992 5.08347 21.0316C5.01586 20.964 4.97731 20.8727 4.97601 20.7771V18.7971C4.48411 18.7306 4.00049 18.613 3.53301 18.4461C2.81864 18.207 2.14789 17.8534 1.54701 17.3991C1.36439 17.267 1.18882 17.1255 1.02101 16.9751C0.927013 16.8844 0.860346 16.8177 0.821013 16.7751C0.759881 16.7146 0.723612 16.6334 0.719355 16.5475C0.715098 16.4617 0.743161 16.3773 0.798013 16.3111L1.96401 14.7791C1.99502 14.739 2.0343 14.7062 2.07917 14.6827C2.12404 14.6592 2.17344 14.6457 2.22401 14.6431C2.27416 14.6333 2.32601 14.6375 2.37396 14.6551C2.4219 14.6728 2.46411 14.7032 2.49601 14.7431L2.51901 14.7661C3.29392 15.4731 4.24308 15.9612 5.26901 16.1801C5.54398 16.2401 5.82457 16.2706 6.10601 16.2711C6.68111 16.2817 7.245 16.1113 7.71801 15.7841C7.9429 15.633 8.12531 15.4269 8.24786 15.1853C8.37041 14.9437 8.42899 14.6747 8.41801 14.4041C8.41785 14.1922 8.359 13.9845 8.24801 13.8041C8.14514 13.6284 8.0175 13.4684 7.86901 13.3291C7.66719 13.1603 7.44475 13.0178 7.20701 12.9051C6.90501 12.7504 6.65601 12.6297 6.46001 12.5431C6.26401 12.4564 5.96235 12.3337 5.55501 12.1751C5.26101 12.0544 5.02768 11.9601 4.85501 11.8921C4.68235 11.8241 4.44901 11.7241 4.15501 11.5921C3.86101 11.4587 3.62535 11.3417 3.44801 11.2411C3.27068 11.1404 3.05768 11.0071 2.80901 10.8411C2.59224 10.7007 2.38962 10.5396 2.20401 10.3601C2.03042 10.1841 1.86619 9.99923 1.71201 9.80607C1.54883 9.60706 1.4142 9.38627 1.31201 9.15007C1.211 8.90678 1.13137 8.65517 1.07401 8.39807C1.00738 8.10847 0.973829 7.81224 0.974013 7.51507C0.966995 6.49165 1.36576 5.50713 2.08301 4.77707C2.85812 3.97176 3.87301 3.43889 4.97601 3.25807V1.22407C4.97731 1.12846 5.01586 1.03714 5.08347 0.969526C5.15108 0.901916 5.24241 0.863362 5.33801 0.862068H6.86401C6.91204 0.860243 6.95993 0.868358 7.00467 0.885904C7.04942 0.903451 7.09006 0.930051 7.12404 0.964036C7.15803 0.998022 7.18463 1.03866 7.20218 1.08341C7.21972 1.12815 7.22784 1.17604 7.22601 1.22407V3.21507C7.65042 3.25914 8.06924 3.34626 8.47601 3.47507C8.81425 3.57846 9.14446 3.70647 9.46401 3.85807C9.71416 3.98082 9.95453 4.12257 10.183 4.28207C10.409 4.44073 10.556 4.55007 10.624 4.61007C10.692 4.67007 10.7487 4.72273 10.794 4.76807C10.8544 4.8204 10.8936 4.89303 10.9041 4.97226C10.9146 5.05148 10.8957 5.13181 10.851 5.19807L9.93401 6.85007C9.91113 6.90096 9.87486 6.94468 9.82907 6.97656C9.78328 7.00844 9.72968 7.02728 9.67401 7.03107C9.62036 7.04197 9.56492 7.04052 9.51191 7.02683C9.45889 7.01315 9.40969 6.98758 9.36801 6.95207C9.34535 6.9294 9.29068 6.88407 9.20401 6.81607C9.11735 6.74807 8.97068 6.64707 8.76401 6.51307C8.55138 6.37826 8.33025 6.25734 8.10201 6.15107C7.83024 6.02839 7.54814 5.93001 7.25901 5.85707C6.94366 5.77209 6.61861 5.72839 6.29201 5.72707C5.67056 5.69982 5.05646 5.87033 4.53801 6.21407C4.25183 6.40416 4.03843 6.68554 3.93256 7.01238C3.8267 7.33923 3.83461 7.69229 3.95501 8.01407C4.02897 8.1942 4.14322 8.35499 4.28901 8.48407C4.43062 8.617 4.57987 8.74155 4.73601 8.85707C4.93625 8.99308 5.14846 9.11056 5.37001 9.20807C5.65268 9.3414 5.88101 9.4434 6.05501 9.51407C6.22901 9.58473 6.49301 9.6884 6.84701 9.82507C7.24701 9.97573 7.55268 10.0944 7.76401 10.1811C7.97535 10.2677 8.26201 10.4011 8.62401 10.5811C8.91982 10.7208 9.20522 10.8815 9.47801 11.0621C9.72289 11.236 9.95667 11.425 10.178 11.6281C10.4153 11.834 10.6179 12.0768 10.778 12.3471C10.9294 12.6212 11.0488 12.9118 11.134 13.2131C11.234 13.5588 11.2836 13.9172 11.281 14.2771L11.279 14.2701Z" fill="#707070"/>
</svg>
