<svg width="16" height="16" viewBox="0 0 16 16" fill="none" xmlns="http://www.w3.org/2000/svg">
<g id="_icons">
<path id="Path 1048" d="M15.042 7.16395C15.0394 6.27841 14.6864 5.42989 14.0602 4.80372C13.4341 4.17754 12.5855 3.82459 11.7 3.82195H10.864V2.98595C10.8701 2.65496 10.8094 2.32614 10.6855 2.01915C10.5616 1.71216 10.3771 1.43331 10.143 1.19927C9.90884 0.965234 9.62991 0.780817 9.32287 0.657051C9.01583 0.533285 8.68699 0.472712 8.356 0.478953H6.685C6.3541 0.472848 6.02536 0.533522 5.71844 0.657349C5.41151 0.781176 5.13271 0.965613 4.89868 1.19964C4.66466 1.43366 4.48022 1.71247 4.3564 2.01939C4.23257 2.32631 4.17189 2.65505 4.178 2.98595V3.82195H3.343C2.45728 3.82433 1.60851 4.17716 0.982118 4.80336C0.355726 5.42957 0.00263918 6.27824 0 7.16395V12.179C0.0023754 13.0648 0.355346 13.9138 0.981766 14.5402C1.60819 15.1666 2.45711 15.5196 3.343 15.522H11.7C12.5857 15.5193 13.4344 15.1662 14.0606 14.5398C14.6868 13.9134 15.0396 13.0647 15.042 12.179V7.16395ZM5.849 2.98595C5.84213 2.87438 5.85905 2.76262 5.89863 2.65808C5.93821 2.55354 5.99956 2.4586 6.0786 2.37955C6.15764 2.30051 6.25258 2.23917 6.35712 2.19958C6.46167 2.16 6.57343 2.14308 6.685 2.14995H8.356C8.46757 2.14308 8.57933 2.16 8.68388 2.19958C8.78842 2.23917 8.88336 2.30051 8.9624 2.37955C9.04144 2.4586 9.10279 2.55354 9.14237 2.65808C9.18195 2.76262 9.19887 2.87438 9.192 2.98595V3.82195H5.849V2.98595ZM1.671 7.16395C1.67232 6.72101 1.84893 6.2966 2.16224 5.98348C2.47554 5.67037 2.90006 5.49401 3.343 5.49295H11.7C12.1426 5.49454 12.5666 5.67113 12.8795 5.98419C13.1923 6.29725 13.3687 6.72136 13.37 7.16395V7.99995H1.671V7.16395ZM11.7 13.849H3.343C2.90023 13.8479 2.47586 13.6717 2.16259 13.3588C1.84931 13.0459 1.67258 12.6217 1.671 12.179V9.67095H5.849V9.92195C5.849 10.3198 6.00704 10.7013 6.28834 10.9826C6.56964 11.2639 6.95118 11.422 7.349 11.422H7.767C8.16482 11.422 8.54636 11.2639 8.82766 10.9826C9.10896 10.7013 9.267 10.3198 9.267 9.92195V9.67095H13.445V12.179C13.411 12.6234 13.2141 13.0396 12.892 13.3478C12.57 13.656 12.1455 13.8345 11.7 13.849Z" fill="#292929"/>
</g>
</svg>
