<svg width="16" height="9" viewBox="0 0 16 9" fill="none" xmlns="http://www.w3.org/2000/svg">
<path id="Path 1178" d="M2.12694 7.81685C2.44172 7.81681 2.74971 7.72528 3.01342 7.55341C3.27714 7.38154 3.48523 7.13673 3.61236 6.84877C3.7395 6.5608 3.78021 6.2421 3.72953 5.93142C3.67886 5.62075 3.53899 5.33149 3.32694 5.09885L4.28294 4.14285C4.58087 4.41551 4.97008 4.56672 5.37394 4.56672C5.77779 4.56672 6.16701 4.41551 6.46494 4.14285L7.69494 5.37285C7.49489 5.59378 7.35946 5.86547 7.30345 6.1582C7.24744 6.45093 7.27302 6.75343 7.37739 7.0326C7.48175 7.31177 7.66089 7.55686 7.89519 7.74106C8.1295 7.92526 8.40995 8.04148 8.70586 8.07699C9.00178 8.1125 9.30177 8.06595 9.573 7.94242C9.84424 7.8189 10.0763 7.62316 10.2437 7.37661C10.4112 7.13006 10.5076 6.84221 10.5225 6.54453C10.5373 6.24686 10.47 5.95084 10.3279 5.68885L12.6879 3.32885C12.988 3.59753 13.3779 3.74384 13.7806 3.73883C14.1834 3.73382 14.5695 3.57787 14.8628 3.30182C15.1561 3.02576 15.3351 2.64971 15.3644 2.24803C15.3937 1.84634 15.2712 1.44828 15.0212 1.13256C14.7711 0.816846 14.4117 0.606464 14.0139 0.543026C13.6162 0.479588 13.2091 0.567714 12.8733 0.789973C12.5374 1.01223 12.2972 1.35244 12.2001 1.74331C12.103 2.13419 12.1561 2.54726 12.3489 2.90085L9.98894 5.26085C9.74013 5.03367 9.42669 4.88972 9.09223 4.84903C8.75778 4.80835 8.41896 4.87295 8.12294 5.03385L6.80294 3.71385C6.93743 3.46604 7.0052 3.18752 6.99962 2.90562C6.99404 2.62371 6.9153 2.3481 6.77111 2.1058C6.62692 1.8635 6.42223 1.66282 6.17713 1.52346C5.93202 1.38409 5.6549 1.31082 5.37294 1.31082C5.09098 1.31082 4.81386 1.38409 4.56875 1.52346C4.32365 1.66282 4.11896 1.8635 3.97477 2.1058C3.83058 2.3481 3.75184 2.62371 3.74626 2.90562C3.74068 3.18752 3.80845 3.46604 3.94294 3.71385L2.90194 4.75985C2.68416 4.6413 2.44216 4.5741 2.19443 4.56338C1.94671 4.55265 1.69981 4.59869 1.47259 4.69798C1.24538 4.79727 1.04387 4.94717 0.883448 5.13625C0.723028 5.32532 0.607946 5.54856 0.546993 5.78891C0.486041 6.02926 0.48083 6.28036 0.531759 6.52303C0.582689 6.7657 0.688411 6.99353 0.840849 7.18909C0.993287 7.38466 1.18841 7.54279 1.41131 7.65142C1.6342 7.76005 1.87898 7.81729 2.12694 7.81685ZM13.7819 1.04185C13.9963 1.04185 14.2059 1.10543 14.3842 1.22454C14.5624 1.34365 14.7014 1.51295 14.7834 1.71103C14.8655 1.9091 14.8869 2.12706 14.8451 2.33733C14.8033 2.54761 14.7 2.74076 14.5484 2.89236C14.3968 3.04396 14.2037 3.1472 13.9934 3.18902C13.7831 3.23085 13.5652 3.20938 13.3671 3.12734C13.169 3.04529 12.9997 2.90636 12.8806 2.72809C12.7615 2.54983 12.6979 2.34025 12.6979 2.12585C12.6985 1.83852 12.8128 1.56311 13.016 1.35993C13.2192 1.15676 13.4946 1.04238 13.7819 1.04185ZM9.98194 6.46385C9.98194 6.67825 9.91836 6.88783 9.79925 7.06609C9.68014 7.24435 9.51084 7.38329 9.31277 7.46534C9.11469 7.54738 8.89674 7.56885 8.68646 7.52703C8.47619 7.4852 8.28304 7.38196 8.13144 7.23036C7.97984 7.07876 7.87659 6.88561 7.83477 6.67533C7.79294 6.46506 7.81441 6.2471 7.89645 6.04902C7.9785 5.85095 8.11744 5.68165 8.2957 5.56254C8.47396 5.44343 8.68355 5.37985 8.89794 5.37985C9.04081 5.37933 9.18237 5.40699 9.31453 5.46127C9.44669 5.51555 9.56684 5.59537 9.66809 5.69617C9.76935 5.79696 9.84972 5.91674 9.9046 6.04864C9.95949 6.18055 9.98781 6.32198 9.98794 6.46485L9.98194 6.46385ZM5.37694 1.85585C5.59112 1.85684 5.80021 1.92126 5.97781 2.04097C6.15541 2.16068 6.29357 2.33032 6.37485 2.52848C6.45613 2.72664 6.47689 2.94443 6.4345 3.15438C6.39211 3.36432 6.28848 3.55701 6.13668 3.70811C5.98488 3.85921 5.79172 3.96195 5.58159 4.00338C5.37145 4.0448 5.15375 4.02304 4.95596 3.94085C4.75818 3.85866 4.58918 3.71972 4.47029 3.54157C4.35139 3.36342 4.28794 3.15404 4.28794 2.93985C4.2882 2.79715 4.31658 2.6559 4.37147 2.52418C4.42635 2.39246 4.50665 2.27284 4.60779 2.17217C4.70893 2.0715 4.82891 1.99174 4.96089 1.93747C5.09286 1.88319 5.23424 1.85546 5.37694 1.85585ZM2.12694 5.10585C2.34133 5.10585 2.55092 5.16943 2.72918 5.28854C2.90744 5.40765 3.04638 5.57695 3.12843 5.77502C3.21047 5.9731 3.23194 6.19106 3.19011 6.40133C3.14828 6.61161 3.04504 6.80476 2.89344 6.95636C2.74184 7.10796 2.54869 7.2112 2.33842 7.25303C2.12814 7.29485 1.91019 7.27339 1.71211 7.19134C1.51404 7.10929 1.34474 6.97035 1.22563 6.79209C1.10652 6.61383 1.04294 6.40425 1.04294 6.18985C1.04347 5.90252 1.15785 5.62711 1.36102 5.42393C1.5642 5.22076 1.83961 5.10638 2.12694 5.10585Z" fill="#707070" stroke="#707070" stroke-width="0.5"/>
</svg>
